<svg width="21" height="22" viewBox="0 0 21 22" fill="none" xmlns="http://www.w3.org/2000/svg">
<path d="M20.0709 5.17L20.0836 5.15778L15.3491 0.611111L14 1.90667L16.6855 4.48556C15.4891 4.92556 14.6364 6.02556 14.6364 7.33333C14.6364 9.02 16.0618 10.3889 17.8182 10.3889C18.2764 10.3889 18.6964 10.2911 19.0909 10.1322V18.9444C19.0909 19.6167 18.5182 20.1667 17.8182 20.1667C17.1182 20.1667 16.5455 19.6167 16.5455 18.9444V13.4444C16.5455 12.1 15.4 11 14 11H12.7273V2.44444C12.7273 1.1 11.5818 0 10.1818 0H2.54545C1.14545 0 0 1.1 0 2.44444V22H12.7273V12.8333H14.6364V18.9444C14.6364 20.6311 16.0618 22 17.8182 22C19.5745 22 21 20.6311 21 18.9444V7.33333C21 6.49 20.6436 5.72 20.0709 5.17ZM10.1818 8.55556H2.54545V2.44444H10.1818V8.55556ZM17.8182 8.55556C17.1182 8.55556 16.5455 8.00556 16.5455 7.33333C16.5455 6.66111 17.1182 6.11111 17.8182 6.11111C18.5182 6.11111 19.0909 6.66111 19.0909 7.33333C19.0909 8.00556 18.5182 8.55556 17.8182 8.55556Z" fill="white"/>
</svg>
