<svg width="22" height="22" viewBox="0 0 22 22" fill="none" xmlns="http://www.w3.org/2000/svg">
<path d="M11.066 0C17.1258 0 22 4.87418 22 11.066C22 17.1258 17.1258 22 11.066 22C4.87418 22 0 17.1258 0 11.066C0 4.87418 4.87418 0 11.066 0ZM12.7786 9.35314L19.2337 7.37703C17.7845 4.21532 14.6227 2.10764 11.0662 2.10764C7.37758 2.10764 4.21591 4.2154 2.89866 7.37703L9.22209 9.35314C10.1442 8.43099 11.8568 8.43099 12.779 9.35314H12.7786ZM19.7605 9.35314L13.437 11.3293C13.3054 12.1197 12.7784 12.7784 11.9879 13.1735V19.8922C17.2573 19.2335 20.8142 14.3592 19.7602 9.35338L19.7605 9.35314ZM10.0121 19.8919V13.1733C9.22165 12.7781 8.69483 12.1193 8.69483 11.329L2.2398 9.35291C1.31764 14.3591 4.74273 19.2333 10.0121 19.8917L10.0121 19.8919Z" fill="white"/>
</svg>
