<svg width="28" height="28" viewBox="0 0 28 28" fill="none" xmlns="http://www.w3.org/2000/svg">
<path d="M14 0C6.28229 0 0 6.2823 0 14C0 21.7177 6.28229 28 14 28C21.7234 28 28 21.7177 28 14C28 6.2823 21.7234 0 14 0ZM17.116 24.4339C14.8293 25.1264 12.2292 25.0219 9.9749 24.1137C7.7274 23.2187 5.81985 21.5721 4.59781 19.475C3.63084 17.822 3.11464 15.9274 3.11464 14V13.8954C3.14088 11.4455 3.96406 9.13917 5.48625 7.23135C6.79953 5.57833 8.53068 4.35661 10.4972 3.69661C11.6209 3.31127 12.797 3.11515 14.0057 3.11515C15.2077 3.11515 16.3839 3.31127 17.5075 3.69661C19.4936 4.36963 21.238 5.60458 22.5448 7.27692C24.0605 9.17818 24.8706 11.4845 24.8903 13.9212L24.8905 13.9997C24.8905 16.2668 24.1915 18.4425 22.8782 20.2914C21.4801 22.2775 19.4352 23.7411 17.1157 24.4337L17.116 24.4339Z" fill="white"/>
<path d="M16.7999 14C16.7999 15.5401 15.5459 16.7941 13.9998 16.7941C12.4599 16.7941 11.2058 15.5401 11.2058 14C11.2058 12.4601 12.4599 11.2058 13.9998 11.2058C15.5459 11.2058 16.7999 12.4601 16.7999 14Z" fill="white"/>
<path d="M8.447 10.6344C8.447 9.36789 7.8269 8.18909 6.82591 7.45544C6.68187 7.61699 6.53783 7.78402 6.39948 7.95695C5.04021 9.66612 4.30516 11.7253 4.28198 13.907V14.0003C4.28198 14.1912 4.28788 14.382 4.30518 14.5728C4.36784 14.5755 4.42725 14.5836 4.49194 14.5836C6.67376 14.5836 8.44704 12.8103 8.44704 10.6345L8.447 10.6344Z" fill="white"/>
<path d="M7.47858 17.6167C6.68837 17.6167 5.92847 17.8549 5.28149 18.2915C5.38607 18.4944 5.49023 18.6913 5.606 18.8885C6.69689 20.761 8.40017 22.231 10.4068 23.0301C10.615 23.117 10.8292 23.1919 11.0489 23.2558C11.2965 22.7337 11.4336 22.1657 11.4336 21.5718C11.4336 19.3959 9.66015 17.6167 7.47854 17.6167H7.47858Z" fill="white"/>
<path d="M15.8609 22.1084C15.8609 22.5839 15.9573 23.049 16.1236 23.4893C16.3433 23.437 16.5628 23.3794 16.7768 23.3159C18.8591 22.6977 20.6851 21.385 21.9217 19.6176C22.0557 19.4308 22.1843 19.2384 22.3009 19.0402C22.3011 19.0398 22.3013 19.0394 22.3015 19.039C21.6043 18.4712 20.7323 18.1536 19.8157 18.1536C17.6341 18.1534 15.8608 19.9266 15.8608 22.1085L15.8609 22.1084Z" fill="white"/>
<path d="M23.7245 13.9245C23.707 11.7486 22.9837 9.70127 21.6361 8.00366C21.502 7.82869 21.3561 7.66532 21.2103 7.50195C20.242 8.23112 19.6644 9.38018 19.6644 10.6343C19.6644 12.8102 21.4377 14.5835 23.6195 14.5835H23.707C23.7186 14.391 23.7245 14.1926 23.7245 14.0002L23.7245 13.9245Z" fill="white"/>
<path d="M14.0062 7.65318C15.7074 7.65318 17.1759 6.58344 17.722 5.02828C17.5296 4.94079 17.3312 4.87081 17.1328 4.80062C16.1296 4.45658 15.0737 4.28162 14.0062 4.28162C12.9328 4.28162 11.8769 4.45659 10.8794 4.80062C10.681 4.86491 10.477 4.94059 10.2843 5.02828C10.8306 6.58344 12.2995 7.65318 14.0062 7.65318H14.0062Z" fill="white"/>
</svg>
